<?xml version="1.0" encoding="UTF-8" standalone="no"?>
<!DOCTYPE svg PUBLIC "-//W3C//DTD SVG 1.1//EN"
 "http://www.w3.org/Graphics/SVG/1.1/DTD/svg11.dtd">
<!-- Generated by graphviz version 2.38.0 (20140413.2041)
 -->
<!-- Title: test Pages: 1 -->
<svg width="238pt" height="653pt"
 viewBox="0.00 0.00 238.00 653.00" xmlns="http://www.w3.org/2000/svg" xmlns:xlink="http://www.w3.org/1999/xlink">
<g id="graph0" class="graph" transform="scale(1 1) rotate(0) translate(4 649)">
<title>test</title>
<polygon fill="white" stroke="none" points="-4,4 -4,-649 234,-649 234,4 -4,4"/>
<!-- 652 -->
<g id="node1" class="node"><title>652</title>
<ellipse fill="none" stroke="black" cx="93" cy="-627" rx="27" ry="18"/>
<text text-anchor="middle" x="93" y="-623.3" font-family="Times,serif" font-size="14.00">652</text>
</g>
<!-- 652&#45;&gt;652 -->
<g id="edge14" class="edge"><title>652&#45;&gt;652</title>
<path fill="none" stroke="black" d="M117.532,-634.752C128.508,-635.49 138,-632.906 138,-627 138,-623.032 133.715,-620.563 127.574,-619.594"/>
<polygon fill="black" stroke="black" points="127.647,-616.095 117.532,-619.248 127.406,-623.091 127.647,-616.095"/>
<text text-anchor="middle" x="150" y="-623.3" font-family="Times,serif" font-size="14.00">start</text>
</g>
<!-- 901 -->
<g id="node2" class="node"><title>901</title>
<ellipse fill="none" stroke="black" cx="33" cy="-192" rx="27" ry="18"/>
<text text-anchor="middle" x="33" y="-188.3" font-family="Times,serif" font-size="14.00">901</text>
</g>
<!-- 652&#45;&gt;901 -->
<g id="edge1" class="edge"><title>652&#45;&gt;901</title>
<path fill="none" stroke="black" d="M70.0112,-616.922C42.4713,-604.356 0,-578.841 0,-541 0,-541 0,-541 0,-278 0,-256.695 9.12081,-234.298 17.7723,-217.846"/>
<polygon fill="black" stroke="black" points="20.9454,-219.341 22.7395,-208.899 14.8254,-215.943 20.9454,-219.341"/>
<text text-anchor="middle" x="20" y="-405.8" font-family="Times,serif" font-size="14.00">epsilon</text>
</g>
<!-- 352 -->
<g id="node3" class="node"><title>352</title>
<ellipse fill="none" stroke="black" cx="93" cy="-540" rx="27" ry="18"/>
<text text-anchor="middle" x="93" y="-536.3" font-family="Times,serif" font-size="14.00">352</text>
</g>
<!-- 652&#45;&gt;352 -->
<g id="edge2" class="edge"><title>652&#45;&gt;352</title>
<path fill="none" stroke="black" d="M93,-608.799C93,-597.163 93,-581.548 93,-568.237"/>
<polygon fill="black" stroke="black" points="96.5001,-568.175 93,-558.175 89.5001,-568.175 96.5001,-568.175"/>
<text text-anchor="middle" x="113" y="-579.8" font-family="Times,serif" font-size="14.00">epsilon</text>
</g>
<!-- 232 -->
<g id="node8" class="node"><title>232</title>
<ellipse fill="none" stroke="black" cx="33" cy="-105" rx="27" ry="18"/>
<text text-anchor="middle" x="33" y="-101.3" font-family="Times,serif" font-size="14.00">232</text>
</g>
<!-- 901&#45;&gt;232 -->
<g id="edge12" class="edge"><title>901&#45;&gt;232</title>
<path fill="none" stroke="black" d="M33,-173.799C33,-162.163 33,-146.548 33,-133.237"/>
<polygon fill="black" stroke="black" points="36.5001,-133.175 33,-123.175 29.5001,-133.175 36.5001,-133.175"/>
<text text-anchor="middle" x="53" y="-144.8" font-family="Times,serif" font-size="14.00">epsilon</text>
</g>
<!-- 562 -->
<g id="node4" class="node"><title>562</title>
<ellipse fill="none" stroke="black" cx="55" cy="-453" rx="27" ry="18"/>
<text text-anchor="middle" x="55" y="-449.3" font-family="Times,serif" font-size="14.00">562</text>
</g>
<!-- 352&#45;&gt;562 -->
<g id="edge8" class="edge"><title>352&#45;&gt;562</title>
<path fill="none" stroke="black" d="M77.8422,-524.961C72.3206,-519.022 66.5645,-511.698 63,-504 59.7864,-497.06 57.8331,-489.062 56.6547,-481.527"/>
<polygon fill="black" stroke="black" points="60.1007,-480.863 55.454,-471.342 53.1489,-481.683 60.1007,-480.863"/>
<text text-anchor="middle" x="83" y="-492.8" font-family="Times,serif" font-size="14.00">epsilon</text>
</g>
<!-- 311 -->
<g id="node9" class="node"><title>311</title>
<ellipse fill="none" stroke="black" cx="127" cy="-453" rx="27" ry="18"/>
<text text-anchor="middle" x="127" y="-449.3" font-family="Times,serif" font-size="14.00">311</text>
</g>
<!-- 352&#45;&gt;311 -->
<g id="edge7" class="edge"><title>352&#45;&gt;311</title>
<path fill="none" stroke="black" d="M99.7173,-522.207C104.545,-510.138 111.145,-493.638 116.644,-479.891"/>
<polygon fill="black" stroke="black" points="119.948,-481.054 120.412,-470.469 113.449,-478.454 119.948,-481.054"/>
<text text-anchor="middle" x="132" y="-492.8" font-family="Times,serif" font-size="14.00">epsilon</text>
</g>
<!-- 41 -->
<g id="node5" class="node"><title>41</title>
<ellipse fill="none" stroke="black" cx="63" cy="-366" rx="27" ry="18"/>
<text text-anchor="middle" x="63" y="-362.3" font-family="Times,serif" font-size="14.00">41</text>
</g>
<!-- 562&#45;&gt;41 -->
<g id="edge3" class="edge"><title>562&#45;&gt;41</title>
<path fill="none" stroke="black" d="M56.6189,-434.799C57.7141,-423.163 59.1837,-407.548 60.4365,-394.237"/>
<polygon fill="black" stroke="black" points="63.931,-394.459 61.3835,-384.175 56.9618,-393.803 63.931,-394.459"/>
<text text-anchor="middle" x="63.5" y="-405.8" font-family="Times,serif" font-size="14.00">1</text>
</g>
<!-- 827 -->
<g id="node7" class="node"><title>827</title>
<ellipse fill="none" stroke="black" cx="101" cy="-279" rx="27" ry="18"/>
<text text-anchor="middle" x="101" y="-275.3" font-family="Times,serif" font-size="14.00">827</text>
</g>
<!-- 41&#45;&gt;827 -->
<g id="edge5" class="edge"><title>41&#45;&gt;827</title>
<path fill="none" stroke="black" d="M63.454,-347.658C64.272,-337.711 66.272,-325.211 71,-315 73.1164,-310.429 76.0054,-305.99 79.1593,-301.895"/>
<polygon fill="black" stroke="black" points="82.0289,-303.923 85.8422,-294.039 76.697,-299.388 82.0289,-303.923"/>
<text text-anchor="middle" x="91" y="-318.8" font-family="Times,serif" font-size="14.00">epsilon</text>
</g>
<!-- 745 -->
<g id="node6" class="node"><title>745</title>
<ellipse fill="none" stroke="black" cx="33" cy="-18" rx="27" ry="18"/>
<text text-anchor="middle" x="33" y="-14.3" font-family="Times,serif" font-size="14.00">745</text>
</g>
<!-- 745&#45;&gt;745 -->
<g id="edge4" class="edge"><title>745&#45;&gt;745</title>
<path fill="none" stroke="black" d="M57.5325,-25.752C68.5078,-26.4902 78,-23.9062 78,-18 78,-14.0317 73.7151,-11.5632 67.5743,-10.5944"/>
<polygon fill="black" stroke="black" points="67.6472,-7.09491 57.5325,-10.248 67.4059,-14.0908 67.6472,-7.09491"/>
<text text-anchor="middle" x="101" y="-14.3" font-family="Times,serif" font-size="14.00">terminal</text>
</g>
<!-- 827&#45;&gt;652 -->
<g id="edge9" class="edge"><title>827&#45;&gt;652</title>
<path fill="none" stroke="black" d="M123.821,-288.753C136.836,-294.634 152.745,-303.431 164,-315 181.465,-332.954 190,-339.953 190,-365 190,-541 190,-541 190,-541 190,-576.004 153.829,-599.953 125.662,-613.297"/>
<polygon fill="black" stroke="black" points="124.172,-610.129 116.481,-617.416 127.038,-616.516 124.172,-610.129"/>
<text text-anchor="middle" x="210" y="-449.3" font-family="Times,serif" font-size="14.00">epsilon</text>
</g>
<!-- 827&#45;&gt;901 -->
<g id="edge10" class="edge"><title>827&#45;&gt;901</title>
<path fill="none" stroke="black" d="M88.843,-262.804C78.5602,-249.95 63.6549,-231.319 51.8295,-216.537"/>
<polygon fill="black" stroke="black" points="54.2611,-213.974 45.2811,-208.351 48.795,-218.346 54.2611,-213.974"/>
<text text-anchor="middle" x="92" y="-231.8" font-family="Times,serif" font-size="14.00">epsilon</text>
</g>
<!-- 232&#45;&gt;745 -->
<g id="edge6" class="edge"><title>232&#45;&gt;745</title>
<path fill="none" stroke="black" d="M33,-86.799C33,-75.1626 33,-59.5479 33,-46.2368"/>
<polygon fill="black" stroke="black" points="36.5001,-46.1754 33,-36.1754 29.5001,-46.1755 36.5001,-46.1754"/>
<text text-anchor="middle" x="36.5" y="-57.8" font-family="Times,serif" font-size="14.00">1</text>
</g>
<!-- 502 -->
<g id="node10" class="node"><title>502</title>
<ellipse fill="none" stroke="black" cx="135" cy="-366" rx="27" ry="18"/>
<text text-anchor="middle" x="135" y="-362.3" font-family="Times,serif" font-size="14.00">502</text>
</g>
<!-- 311&#45;&gt;502 -->
<g id="edge11" class="edge"><title>311&#45;&gt;502</title>
<path fill="none" stroke="black" d="M128.619,-434.799C129.714,-423.163 131.184,-407.548 132.437,-394.237"/>
<polygon fill="black" stroke="black" points="135.931,-394.459 133.383,-384.175 128.962,-393.803 135.931,-394.459"/>
<text text-anchor="middle" x="134.5" y="-405.8" font-family="Times,serif" font-size="14.00">0</text>
</g>
<!-- 502&#45;&gt;827 -->
<g id="edge13" class="edge"><title>502&#45;&gt;827</title>
<path fill="none" stroke="black" d="M128.283,-348.207C123.455,-336.138 116.855,-319.638 111.356,-305.891"/>
<polygon fill="black" stroke="black" points="114.551,-304.454 107.588,-296.469 108.052,-307.054 114.551,-304.454"/>
<text text-anchor="middle" x="140" y="-318.8" font-family="Times,serif" font-size="14.00">epsilon</text>
</g>
</g>
</svg>
